<svg xmlns="http://www.w3.org/2000/svg" viewBox="0 0 117 40"><path d="M3.1,0a3,3,0,0,0-3,3V37a3,3,0,0,0,3,3H47a3.1,3.1,0,0,0,3-3V3a3.1,3.1,0,0,0-3-3ZM14.7,12H10.5V28.3h3.3V17.6h.1l4.3,10.6h2.2l4.3-10.5h.1V28.3h3.4V12H23.9L19.4,22.9h-.2Zm16.2,4V28.3h3.4V21.4a2.6,2.6,0,0,1,.8-1.9,2.4,2.4,0,0,1,1.8-.7h1.5V16H37.3a3.5,3.5,0,0,0-1.8.5,3.3,3.3,0,0,0-1.1,1.8h-.2V16Zm8.5,11.9a1.9,1.9,0,0,0,3.2-1.3,2,2,0,0,0-.6-1.4,1.9,1.9,0,0,0-2.6,0,2,2,0,0,0-.6,1.4A1.6,1.6,0,0,0,39.4,27.9Z" style="fill:#ffc000;fill-rule:evenodd"></path><path d="M59.1,33V7.6H75.9v4.5H64.4v6H74.8v4.5H64.4V33Z" style="fill:#fff"></path><path d="M103.5,14l3.5,6.7,3.6-6.7H116l-5.5,9.5,5.6,9.5h-5.4L107,26.5,103.3,33H97.8l5.7-9.5L98,14Z" style="fill:#fff"></path><path d="M92.6,8H89v2H86V8H82.4a3.7,3.7,0,0,0-3.7,3.7v1.2H96.3V11.7A3.7,3.7,0,0,0,92.6,8Z" style="fill:#fff"></path><path d="M91.9,23.1l-.5.5V22.2l-7.8,5.9v1.4l-1.4,1.1.9,1.2,9.7-7.5Z" style="fill:#fff"></path><path d="M91.9,18.1l-.5.4V17.1L83.6,23v1.4l-1.4,1.2.9,1.1,9.7-7.4Z" style="fill:#fff"></path><path d="M85.7,31.6,87.5,33l3.9-3V27.2Z" style="fill:#fff"></path><path d="M83.6,14.3v5.1l-1.4,1.1.9,1.2,9.5-7.4Z" style="fill:#fff"></path></svg>